<?xml version="1.0" encoding="UTF-8"?>
<svg version="1.1" xmlns="http://www.w3.org/2000/svg" width="283" height="281">
    <path d="M0 0 C0.74309542 -0.00297112 1.48619083 -0.00594224 2.25180429 -0.0090034 C4.73725255 -0.0176621 7.22265249 -0.01919627 9.70811462 -0.02069092 C11.4923157 -0.02532121 13.27651578 -0.03034616 15.06071472 -0.03573608 C19.90611079 -0.04884447 24.75149301 -0.05530237 29.59690404 -0.05974674 C32.62744472 -0.06268088 35.65798165 -0.0667864 38.68852043 -0.07125092 C48.1797738 -0.0849237 57.67101856 -0.0945906 67.1622811 -0.09845281 C78.10041347 -0.10292872 89.03842058 -0.1204559 99.97651488 -0.1494534 C108.44212855 -0.17111303 116.9077071 -0.18115942 125.37334818 -0.18249393 C130.42404814 -0.18353918 135.47463032 -0.18938691 140.52530098 -0.20731354 C145.28186283 -0.22386764 150.0382193 -0.22591429 154.7947998 -0.21717453 C156.53294362 -0.21640799 158.27109882 -0.22069593 160.0092144 -0.23063278 C178.92867475 -0.33238194 194.29296293 3.39698076 208.39146423 16.97247314 C209.45107361 18.04561768 209.45107361 18.04561768 210.53208923 19.14044189 C211.09412048 19.68055908 211.65615173 20.22067627 212.23521423 20.77716064 C221.10512085 30.04387888 225.85079216 43.36564266 225.8062439 56.02485657 C225.81148058 56.77656567 225.81671725 57.52827476 225.82211262 58.30276293 C225.83700884 60.79957374 225.83781547 63.29617774 225.83848572 65.79302979 C225.84611438 67.59251242 225.85454309 69.39199182 225.8637085 71.19146729 C225.88559501 76.06581857 225.89444493 80.94010714 225.89953494 85.814502 C225.90318649 88.86602657 225.90943079 91.91753491 225.91653633 94.96905327 C225.94101388 105.63287955 225.95407834 116.29665733 225.95762634 126.96051025 C225.96125671 136.87049141 225.99112076 146.78016195 226.03303093 156.69004828 C226.06783363 165.22116966 226.08317653 173.75218863 226.08387238 182.28338045 C226.08466201 187.36830623 226.0932553 192.45291554 226.12187004 197.53776741 C226.14822111 202.32732551 226.15016172 207.11630861 226.1342144 211.90590668 C226.13241318 213.6524755 226.13896902 215.3990787 226.15503311 217.14557457 C226.31733878 235.95583979 221.55496956 250.90074416 208.34458923 264.89044189 C193.72121251 278.85636435 177.58410203 281.75983511 158.22666931 281.64215088 C156.42966287 281.64594284 154.63265936 281.65145006 152.83566284 281.65852356 C147.99693805 281.67237809 143.15857281 281.66138068 138.31986833 281.64481235 C133.23481927 281.63086802 128.14978911 281.6374323 123.06472778 281.64094543 C114.53206143 281.64363945 105.9995364 281.63023927 97.46690369 281.60699463 C87.6238106 281.58036444 77.78095326 281.57864899 67.93783647 281.59038299 C58.43589014 281.60118639 48.93402848 281.59495526 39.43208885 281.58082771 C35.40245736 281.5750927 31.37288834 281.57513088 27.343256 281.57989311 C22.59474643 281.58468869 17.84649293 281.57445498 13.098032 281.55293846 C11.36270003 281.54740638 9.62734327 281.5468721 7.89200974 281.55189133 C-10.58186165 281.59859821 -26.73020177 277.43350706 -40.40541077 264.46832275 C-51.0294852 253.81718292 -57.61908763 239.6880602 -57.61508179 224.64129639 C-57.61875848 223.89482298 -57.62243516 223.14834958 -57.62622327 222.37925577 C-57.63722057 219.8823264 -57.64109725 217.38543869 -57.64491272 214.88848877 C-57.6511805 213.09605783 -57.65782758 211.30362819 -57.66482544 209.51119995 C-57.68583592 203.62720641 -57.69622702 197.74321272 -57.70619202 191.85919189 C-57.71024111 189.82971686 -57.71435807 187.80024197 -57.7185421 185.77076721 C-57.73758945 176.23199384 -57.7518198 166.69322817 -57.76015407 157.15443945 C-57.7699163 146.16421006 -57.79621128 135.17418261 -57.83665496 124.18402433 C-57.86688073 115.67678268 -57.88162918 107.16959869 -57.88493508 98.6623044 C-57.88727874 93.58749707 -57.8961495 88.51290558 -57.92139626 83.43815613 C-57.94479439 78.65774637 -57.9488633 73.87769278 -57.93863487 69.09724045 C-57.9381422 67.3514474 -57.9443826 65.60563612 -57.95819092 63.85989761 C-58.09497266 45.52773269 -53.84767188 30.17660114 -40.65541077 16.76544189 C-29.4621944 5.87638901 -15.68798931 -0.01972071 0 0 Z "
          fill="#409E5F" transform="translate(57.46791076660156,-0.14044189453125)"/>
    <path d="M0 0 C1.12701515 2.23492835 2.21392176 4.47062786 3.25 6.75 C4.82790032 9.31111459 4.82790032 9.31111459 7.875 9.4375 C10.90813345 9.01286132 13.20563351 8.2083747 16 7 C16.99 7 17.98 7 19 7 C17.125 14.625 17.125 14.625 16 18 C15.93197033 19.72795352 15.91504355 21.45835365 15.9375 23.1875 C15.94652344 24.08855469 15.95554687 24.98960937 15.96484375 25.91796875 C15.97644531 26.60503906 15.98804688 27.29210937 16 28 C16.53109375 27.57847656 17.0621875 27.15695313 17.609375 26.72265625 C18.66898438 25.90087891 18.66898438 25.90087891 19.75 25.0625 C20.79414063 24.24458984 20.79414063 24.24458984 21.859375 23.41015625 C27.39087649 19.76622917 34.64038821 20.32376888 41 21 C46.14285069 22.9457253 50.1449635 26.30958289 53 31 C54.4755547 34.62228185 55.77700674 38.28548324 57 42 C57.66 41.67 58.32 41.34 59 41 C65.97893946 40.2484219 71.69099008 40.29591583 77.4453125 44.59375 C81.8765718 48.60192425 82.64582439 52.78984319 83.06640625 58.56640625 C82.94066354 63.1745067 80.92355164 65.93214342 78 69.3125 C74.65894027 72.13151915 71.73016073 72.13146218 67.52325439 72.16062927 C66.38492157 72.1706749 65.24658875 72.18072052 64.07376099 72.19107056 C62.19888504 72.19981705 62.19888504 72.19981705 60.28613281 72.20874023 C58.97045319 72.21852402 57.65477356 72.2283078 56.29922485 72.23838806 C51.93388815 72.26975224 47.5685325 72.29003735 43.203125 72.30859375 C42.08844172 72.31353973 42.08844172 72.31353973 40.95123959 72.31858563 C33.94074279 72.34936514 26.93024163 72.37606773 19.91969681 72.39300442 C10.95870005 72.41490859 1.99830261 72.45687893 -6.96245456 72.52644199 C-13.26660286 72.57371656 -19.57058965 72.5979425 -25.87490964 72.6052013 C-29.63854274 72.61015237 -33.40150004 72.62517948 -37.16493988 72.6649456 C-40.70777091 72.70188789 -44.24954233 72.71019801 -47.79253006 72.69693947 C-49.70567591 72.69701887 -51.61874896 72.72682049 -53.53164673 72.75762939 C-62.94485738 72.67826034 -62.94485738 72.67826034 -67.23712158 69.10487366 C-70.90717907 65.36754385 -71.84043815 62.39046756 -72.4375 57.1875 C-72.27789698 51.54819331 -69.35295846 47.37702964 -65.47265625 43.45703125 C-60.99102346 39.56838804 -57.68561717 37.71879955 -51.75 37.875 C-50.41195312 37.90207031 -50.41195312 37.90207031 -49.046875 37.9296875 C-48.37140625 37.95289063 -47.6959375 37.97609375 -47 38 C-46.9175 36.80375 -46.835 35.6075 -46.75 34.375 C-46.09380615 29.34713633 -44.26991908 25.90567625 -40.3203125 22.58984375 C-33.9082602 17.87024302 -29.05636228 16.01062218 -21 17 C-16.60231261 18.42992289 -12.8386972 20.44086854 -9 23 C-8.7215625 21.205625 -8.7215625 21.205625 -8.4375 19.375 C-6.93004079 12.39602218 -3.32699615 6.25368528 0 0 Z "
          fill="#FCFEFC" transform="translate(123,176)"/>
    <path d="M0 0 C3.39595099 3.0320991 3.63322795 6.68677893 4 11 C5.47399426 45.34463752 -1.53961904 72.31142751 -25 98 C-28.72892603 101.99648806 -32.52203123 105.92815639 -36.35452271 109.82528687 C-37.49159533 110.98182303 -38.62514043 112.14183815 -39.75509644 113.30532837 C-41.35609118 114.94775779 -42.97362271 116.57179163 -44.59765625 118.19140625 C-45.0826358 118.69263 -45.56761536 119.19385376 -46.06729126 119.71026611 C-49.41757497 122.99368685 -49.41757497 122.99368685 -51.93701172 123.02099609 C-54.8220944 121.59313624 -57.61929202 120.07954153 -60.41015625 118.47265625 C-61.0188707 118.12367783 -61.62758514 117.7746994 -62.25474548 117.41514587 C-64.19330184 116.30211351 -66.12783972 115.18228782 -68.0625 114.0625 C-69.36759637 113.31272934 -70.67293247 112.56337581 -71.97851562 111.81445312 C-81.43046212 106.37969192 -81.43046212 106.37969192 -85 104 C-83.82592479 95.63157177 -81.94544907 87.77452497 -79.3125 79.75 C-78.78293701 78.11973877 -78.78293701 78.11973877 -78.24267578 76.45654297 C-75.34394833 67.70324285 -72.03755469 59.28660033 -68 51 C-67.52046875 50.01257813 -67.0409375 49.02515625 -66.546875 48.0078125 C-54.82978763 25.28181338 -35.15311599 9.38894346 -10.9375 1.5625 C-7.18417898 0.43129732 -3.92981766 -0.34291603 0 0 Z "
          fill="#FCFEFC" transform="translate(221,30)"/>
    <path d="M0 0 C0.66 2.31 1.32 4.62 2 7 C5.98683713 7.80941599 5.98683713 7.80941599 10 8 C12.52590848 6.22845348 12.52590848 6.22845348 14 4 C17.43595166 5.52708963 20.11912454 7.59927045 23 10 C22.06395349 14.81395349 22.06395349 14.81395349 21.3125 17 C20.87970726 19.76987352 21.82468147 21.51109017 23 24 C25.64 24 28.28 24 31 24 C33.4273045 32.56695707 33.4273045 32.56695707 32 36 C31.030625 36.268125 30.06125 36.53625 29.0625 36.8125 C28.051875 37.204375 27.04125 37.59625 26 38 C24.53977565 41.52451159 24.53977565 41.52451159 24 45 C25.0209375 45.86625 25.0209375 45.86625 26.0625 46.75 C28 49 28 49 28.0625 50.875 C26.49163247 54.01673506 24.32912967 56.37226396 22 59 C21.11248047 58.74863281 21.11248047 58.74863281 20.20703125 58.4921875 C13.96693485 56.85701888 13.96693485 56.85701888 8 59 C8 61.64 8 64.28 8 67 C4.32589215 68.17571451 0.83070817 68.07366746 -3 68 C-3.350625 66.865625 -3.70125 65.73125 -4.0625 64.5625 C-4.81095507 62.61991389 -4.81095507 62.61991389 -6 61 C-9.44336774 59.67451168 -9.44336774 59.67451168 -13 60 C-14.62514468 61.45833358 -14.62514468 61.45833358 -16 63 C-20.48750726 62.87871602 -23.44656208 60.56178082 -27 58 C-26.855625 57.443125 -26.71125 56.88625 -26.5625 56.3125 C-26.376875 55.549375 -26.19125 54.78625 -26 54 C-25.773125 53.175 -25.54625 52.35 -25.3125 51.5 C-24.86126124 49.02872873 -24.86126124 49.02872873 -25.5 46.75 C-27.02533306 44.60939785 -27.02533306 44.60939785 -30.625 44.25 C-31.73875 44.1675 -32.8525 44.085 -34 44 C-35.42258812 40.17679443 -36.24042276 37.08718695 -36 33 C-34.865625 32.649375 -33.73125 32.29875 -32.5625 31.9375 C-30.6242339 31.18334478 -30.6242339 31.18334478 -29 30 C-27.58650231 26.60581779 -27.58650231 26.60581779 -28 23 C-29.792191 20.53827847 -29.792191 20.53827847 -32 19 C-30.6302836 15.00499382 -28.74277578 12.19990508 -26 9 C-22.125 9.875 -22.125 9.875 -21 11 C-17.27775401 11.29386153 -16.22213757 11.14809171 -13 9 C-12.42251197 7.03638136 -12.42251197 7.03638136 -12.3125 4.875 C-12.209375 3.59625 -12.10625 2.3175 -12 1 C-7.93631321 0.22596442 -4.13574827 -0.0984702 0 0 Z "
          fill="#FAFDFA" transform="translate(74,108)"/>
    <path d="M0 0 C3.24591637 0.64982987 5.6997592 1.83026386 8.546875 3.50390625 C9.39121094 3.99697266 10.23554688 4.49003906 11.10546875 4.99804688 C12.41451172 5.77245117 12.41451172 5.77245117 13.75 6.5625 C15.08224609 7.34270508 15.08224609 7.34270508 16.44140625 8.13867188 C18.6302426 9.42137705 20.81627981 10.70861056 23 12 C22.2080214 19.56476109 19.71213379 23.54722927 14.2109375 28.6640625 C8.21990362 33.47168228 0.79224657 38 -7 38 C-8.91056419 34.17887162 -8.22834649 29.51598704 -8.25 25.3125 C-8.2809375 23.84006836 -8.2809375 23.84006836 -8.3125 22.33789062 C-8.36312292 12.90304436 -5.63237423 7.45909019 0 0 Z "
          fill="#FAFDFA" transform="translate(137,142)"/>
    <path d="M0 0 C4.34731225 2.2146685 7.48432837 4.80721395 10 9 C11.41547619 13.76695852 11.47626057 17.74021687 9.4375 22.3125 C7.20104764 26.09784674 5.10964798 28.20669906 1 30 C-3.8620399 30.91582069 -8.06638445 31.14642473 -12.41796875 28.56640625 C-16.8657974 24.79911969 -19.70545719 21.60179483 -20.375 15.6875 C-19.79030965 9.93804493 -17.62890498 6.47377117 -13.375 2.625 C-8.92889553 -0.41707148 -5.30859135 -0.64455072 0 0 Z "
          fill="#429D5F" transform="translate(197,63)"/>
    <path d="M0 0 C4.3329886 2.23638121 6.98509382 4.81686515 9.06640625 9.3125 C9.8605169 14.33913858 9.66789641 18.10951968 7.37890625 22.6875 C6.61578125 23.55375 5.85265625 24.42 5.06640625 25.3125 C4.40640625 26.09625 3.74640625 26.88 3.06640625 27.6875 C-1.78751411 30.31670686 -6.55426525 30.25886335 -11.93359375 29.3125 C-15.79543751 27.30833625 -18.09870807 24.65557696 -20.37109375 21 C-22.34353223 11.57612726 -22.34353223 11.57612726 -19.5078125 7.0234375 C-14.18313747 0.75240695 -8.41008055 -2.99025086 0 0 Z "
          fill="#42A05E" transform="translate(77.93359375,127.6875)"/>
    <path d="M0 0 C4.18343234 4.18343234 5.30879676 7.70690084 5.5 13.5625 C5.24793203 25.6617624 -2.72198855 35.72198855 -11 44 C-13.5 44.125 -13.5 44.125 -16 44 C-17.94099419 42.05900581 -17.62990577 38.53912193 -17.9375 35.875 C-18.56063954 30.58616865 -19.51502845 26.19740041 -21 21 C-14.07 14.07 -7.14 7.14 0 0 Z "
          fill="#F9FCF9" transform="translate(196,133)"/>
    <path d="M0 0 C-0.23783203 0.86044922 -0.23783203 0.86044922 -0.48046875 1.73828125 C-3.06243478 11.13891999 -5.52769874 20.57007622 -8 30 C-8.78503906 30.18175781 -9.57007813 30.36351562 -10.37890625 30.55078125 C-17.33582995 32.17249939 -17.33582995 32.17249939 -24 34.6875 C-27 36 -27 36 -31 36 C-31.90508261 26.58714084 -27.92174548 17.27528731 -22 10 C-15.69277038 3.34716876 -9.30254173 -0.27695834 0 0 Z "
          fill="#FBFDFA" transform="translate(141,100)"/>
    <path d="M0 0 C0 3 0 3 -1.62060547 4.9453125 C-2.36197754 5.66460937 -3.10334961 6.38390625 -3.8671875 7.125 C-4.67027344 7.91390625 -5.47335938 8.7028125 -6.30078125 9.515625 C-7.15027344 10.33546875 -7.99976563 11.1553125 -8.875 12 C-10.54119279 13.62281564 -12.20534796 15.24772672 -13.8671875 16.875 C-14.61081543 17.59429687 -15.35444336 18.31359375 -16.12060547 19.0546875 C-18.16746686 21.05707841 -18.16746686 21.05707841 -20 24 C-19.51286902 19.58489226 -18.14946803 17.69553355 -14.9375 14.6875 C-14.20402344 13.99011719 -13.47054687 13.29273438 -12.71484375 12.57421875 C-11.86599609 11.79498047 -11.86599609 11.79498047 -11 11 C-11.33 10.01 -11.66 9.02 -12 8 C-11.319375 7.979375 -10.63875 7.95875 -9.9375 7.9375 C-5.53084593 6.53112104 -3.05237626 3.3690493 0 0 Z "
          fill="#278E4C" transform="translate(194,133)"/>
    <path d="M0 0 C0.99 0 1.98 0 3 0 C3.80967438 2.91482778 4.21845993 4.46113217 3.0625 7.3125 C2.5365625 8.1478125 2.5365625 8.1478125 2 9 C1.34 9 0.68 9 0 9 C-1.10844919 5.67465243 -0.84454356 3.37817425 0 0 Z "
          fill="#4CA268" transform="translate(134,122)"/>
    <path d="M0 0 C-3.00440021 2.00293347 -4.70993945 2.49271626 -8.1875 3.125 C-9.53908203 3.37636719 -9.53908203 3.37636719 -10.91796875 3.6328125 C-11.60503906 3.75398438 -12.29210937 3.87515625 -13 4 C-13 3.34 -13 2.68 -13 2 C-8.49646738 0.24252386 -4.82360189 -0.19294408 0 0 Z "
          fill="#479B6A" transform="translate(245,277)"/>
    <path d="M0 0 C0.66 0 1.32 0 2 0 C1.42365861 4.75481646 -0.55068521 7.97048212 -3 12 C-3.88336837 9.5332355 -4.1312406 8.36140628 -3.22265625 5.859375 C-2.83980469 5.16328125 -2.45695312 4.4671875 -2.0625 3.75 C-1.68222656 3.04359375 -1.30195313 2.3371875 -0.91015625 1.609375 C-0.60980469 1.07828125 -0.30945313 0.5471875 0 0 Z "
          fill="#4D9D70" transform="translate(277,243)"/>
    <path d="M0 0 C1.32 0 2.64 0 4 0 C3.67 1.98 3.34 3.96 3 6 C2.01 6 1.02 6 0 6 C0 4.02 0 2.04 0 0 Z " fill="#399857"
          transform="translate(135,118)"/>
    <path d="M0 0 C0.33 0 0.66 0 1 0 C1 1.65 1 3.3 1 5 C1.99 5.33 2.98 5.66 4 6 C2.35 6 0.7 6 -1 6 C-1.33 6.99 -1.66 7.98 -2 9 C-2.6875 7.3125 -2.6875 7.3125 -3 5 C-1.625 2.25 -1.625 2.25 0 0 Z "
          fill="#62AE79" transform="translate(109,131)"/>
    <path d="M0 0 C1.06546953 3.1964086 1.07427838 5.65747276 1 9 C0.01 9 -0.98 9 -2 9 C-1.125 1.125 -1.125 1.125 0 0 Z "
          fill="#379755" transform="translate(141,101)"/>
</svg>