<?xml version="1.0" encoding="UTF-8"?>
<svg xmlns="http://www.w3.org/2000/svg" version="1.1" width="274px" height="195px"
     style="shape-rendering:geometricPrecision; text-rendering:geometricPrecision; image-rendering:optimizeQuality; fill-rule:evenodd; clip-rule:evenodd"
>
    <g>
        <path style="opacity:0.931" fill="#fefffe"
              d="M 57.5,-0.5 C 79.8333,-0.5 102.167,-0.5 124.5,-0.5C 129.439,3.92787 130.939,9.2612 129,15.5C 113.034,42.6008 97.2003,69.7675 81.5,97C 97.3172,124.157 113.151,151.323 129,178.5C 130.865,185.07 129.032,190.404 123.5,194.5C 101.833,194.5 80.1667,194.5 58.5,194.5C 56.563,193.069 54.7297,191.402 53,189.5C 35.3922,159.936 17.5589,130.603 -0.5,101.5C -0.5,98.5 -0.5,95.5 -0.5,92.5C 17.477,63.8957 34.977,34.8957 52,5.5C 53.6993,3.30393 55.5327,1.30393 57.5,-0.5 Z M 64.5,12.5 C 81.17,12.3334 97.8367,12.5001 114.5,13C 100.032,37.6309 85.3656,62.1309 70.5,86.5C 61.7974,72.9351 53.4641,59.1018 45.5,45C 51.6453,34.0297 57.9786,23.1964 64.5,12.5 Z M 38.5,54.5 C 39.4959,54.4142 40.3292,54.7476 41,55.5C 65.419,96.6692 89.5856,138.002 113.5,179.5C 96.8333,180.833 80.1667,180.833 63.5,179.5C 46.5819,151.999 29.9152,124.333 13.5,96.5C 22.3597,82.7752 30.6931,68.7752 38.5,54.5 Z"/>
    </g>
    <g>
        <path style="opacity:0.93" fill="#fefffe"
              d="M 149.5,-0.5 C 171.833,-0.5 194.167,-0.5 216.5,-0.5C 218.807,0.977392 220.64,2.97739 222,5.5C 239.03,34.0045 256.197,62.3378 273.5,90.5C 273.5,94.8333 273.5,99.1667 273.5,103.5C 255.272,131.603 237.772,160.269 221,189.5C 219.27,191.402 217.437,193.069 215.5,194.5C 193.833,194.5 172.167,194.5 150.5,194.5C 144.968,190.404 143.135,185.07 145,178.5C 160.849,151.323 176.683,124.157 192.5,97C 176.8,69.7675 160.966,42.6008 145,15.5C 143.061,9.2612 144.561,3.92787 149.5,-0.5 Z M 159.5,13.5 C 175.995,12.3384 192.662,12.1717 209.5,13C 226.459,40.4165 243.292,67.9165 260,95.5C 252.312,110.573 243.646,125.24 234,139.5C 209.392,97.2719 184.559,55.2719 159.5,13.5 Z M 203.5,107.5 C 206.07,108.484 206.07,109.651 203.5,111C 207.333,117.5 211.167,124 215,130.5C 216.362,131.925 217.862,132.758 219.5,133C 218.833,133.667 218.167,134.333 217.5,135C 219.377,137.251 220.877,139.751 222,142.5C 223.101,144.394 224.434,145.061 226,144.5C 227.751,146.212 228.418,148.212 228,150.5C 222.167,160.167 216.333,169.833 210.5,179.5C 193.833,180.833 177.167,180.833 160.5,179.5C 174.356,155.106 188.689,131.106 203.5,107.5 Z"/>
    </g>
    <g>
        <path style="opacity:0.572" fill="#fefffe"
              d="M 232.5,59.5 C 236.095,60.9051 236.262,62.5717 233,64.5C 232.167,63.6667 231.333,62.8333 230.5,62C 231.381,61.2917 232.047,60.4584 232.5,59.5 Z"/>
    </g>
    <g>
        <path style="opacity:0.569" fill="#fefffe"
              d="M 232.5,128.5 C 236.095,129.905 236.262,131.572 233,133.5C 232.167,132.667 231.333,131.833 230.5,131C 231.381,130.292 232.047,129.458 232.5,128.5 Z"/>
    </g>
</svg>
